<svg width="72" height="26" viewBox="0 0 72 26" fill="none" xmlns="http://www.w3.org/2000/svg">
<path d="M59.1584 19.3048V10.009H62.6712V12.8131L62.0994 12.0143C62.3717 11.2893 62.8074 10.7455 63.4065 10.3829C64.0055 10.0204 64.7244 9.8391 65.5631 9.8391V13.2379C65.3997 13.2153 65.2527 13.1983 65.122 13.1869C65.0022 13.1756 64.8769 13.17 64.7462 13.17C64.1907 13.17 63.7332 13.3229 63.3738 13.6288C63.0252 13.9234 62.8509 14.4388 62.8509 15.1753V19.3048H59.1584Z" fill="#EBE3E1"/>
<path d="M53.5144 19.3048C52.4252 19.3048 51.4722 19.0953 50.6552 18.6761C49.8492 18.2569 49.2229 17.6847 48.7763 16.9597C48.3297 16.2232 48.1064 15.3962 48.1064 14.4785C48.1064 13.5382 48.3243 12.7055 48.76 11.9804C49.2066 11.2553 49.8111 10.6888 50.5735 10.2809C51.3469 9.87309 52.2128 9.66916 53.1713 9.66916C54.0536 9.66916 54.8651 9.85043 55.6058 10.213C56.3573 10.5755 56.9564 11.1137 57.403 11.8274C57.8605 12.5412 58.0892 13.4249 58.0892 14.4785C58.0892 14.6145 58.0838 14.7674 58.0729 14.9374C58.062 15.096 58.0511 15.2432 58.0402 15.3792H51.1617V13.5268H56.0796L54.6908 14.0197C54.6908 13.6571 54.6255 13.3512 54.4948 13.102C54.3749 12.8414 54.2061 12.6431 53.9883 12.5072C53.7704 12.3599 53.509 12.2863 53.204 12.2863C52.899 12.2863 52.6322 12.3599 52.4034 12.5072C52.1856 12.6431 52.0168 12.8414 51.8969 13.102C51.7771 13.3512 51.7172 13.6571 51.7172 14.0197V14.5975C51.7172 14.994 51.7935 15.3339 51.946 15.6171C52.0985 15.9004 52.3163 16.1156 52.5995 16.2629C52.8827 16.3988 53.2258 16.4668 53.6288 16.4668C54.0427 16.4668 54.3804 16.4102 54.6418 16.2969C54.9141 16.1836 55.1973 16.0136 55.4914 15.7871L57.4193 17.8094C56.9837 18.2965 56.4445 18.6704 55.8018 18.931C55.1701 19.1802 54.4076 19.3048 53.5144 19.3048Z" fill="#EBE3E1"/>
<path d="M44.6009 9.66922C43.6424 9.66922 42.7765 9.87299 42.0031 10.2808C41.2407 10.6887 40.6361 11.2551 40.1895 11.9802C39.7538 12.7053 39.536 13.5382 39.536 14.4786C39.536 15.3962 39.7592 16.2232 40.2058 16.9596C40.6524 17.6847 41.2785 18.2567 42.0846 18.6759C42.9015 19.0951 43.8547 19.3048 44.9439 19.3048C45.8371 19.3048 46.5995 19.18 47.2312 18.9307C47.664 18.7553 48.0488 18.5272 48.3877 18.2489C47.6751 17.5935 47.1529 16.7582 46.9015 15.801C46.6144 16.0202 46.3378 16.1861 46.0715 16.2968C45.8101 16.4101 45.4722 16.4666 45.0583 16.4666C44.6553 16.4666 44.3124 16.3989 44.0292 16.263C43.746 16.1157 43.5278 15.9003 43.3753 15.6171C43.3348 15.5419 43.3 15.4624 43.2703 15.3792H46.8104C46.7605 15.0908 46.7333 14.7934 46.7333 14.4872C46.7333 13.1381 47.229 11.8845 48.0965 10.935C47.7848 10.6459 47.4318 10.4041 47.0351 10.2127C46.2944 9.85019 45.4832 9.66922 44.6009 9.66922ZM44.6335 12.2862C44.9385 12.2862 45.1998 12.3598 45.4176 12.5071C45.6355 12.6431 45.8044 12.8412 45.9242 13.1018C45.9908 13.2287 46.0405 13.3704 46.0731 13.5267H43.1902C43.2201 13.3705 43.2655 13.2287 43.3264 13.1018C43.4463 12.8412 43.6152 12.6431 43.833 12.5071C44.0618 12.3598 44.3285 12.2862 44.6335 12.2862Z" fill="#EBE3E1"/>
<path d="M32.4587 19.3048L28.8643 10.009H32.6548L35.3833 17.5544H33.4717L36.38 10.009H39.8764L36.2819 19.3048H32.4587Z" fill="#EBE3E1"/>
<path d="M27.1269 9.06586C26.5191 9.06586 26.0339 8.89762 25.6711 8.56113C25.3084 8.22465 25.1271 7.80659 25.1271 7.30696C25.1271 6.80733 25.3084 6.38928 25.6711 6.05279C26.0339 5.71631 26.5191 5.54807 27.1269 5.54807C27.7347 5.54807 28.22 5.70611 28.5827 6.0222C28.9454 6.33829 29.1267 6.74615 29.1267 7.24578C29.1267 7.776 28.9454 8.21445 28.5827 8.56113C28.22 8.89762 27.7347 9.06586 27.1269 9.06586Z" fill="#EBE3E1"/>
<path d="M25.2806 19.3048V10.009H28.9731V19.3048H25.2806Z" fill="#EBE3E1"/>
<path d="M20.2947 19.3048V6.69518H23.9872V19.3048H20.2947Z" fill="#EBE3E1"/>
<path d="M12.8906 19.3048C11.9647 19.3048 11.1043 19.1519 10.3091 18.846C9.52487 18.5401 8.8441 18.1096 8.2668 17.5544C7.68951 16.988 7.23748 16.3252 6.91071 15.5661C6.59483 14.8071 6.43689 13.98 6.43689 13.085C6.43689 12.1786 6.59483 11.3516 6.91071 10.6038C7.23748 9.84476 7.68951 9.18765 8.2668 8.63251C8.8441 8.06603 9.52487 7.62985 10.3091 7.32396C11.1043 7.01806 11.9647 6.86511 12.8906 6.86511C13.8273 6.86511 14.6878 7.01806 15.4721 7.32396C16.2563 7.62985 16.9371 8.06603 17.5144 8.63251C18.0917 9.18765 18.5383 9.84476 18.8542 10.6038C19.1809 11.3516 19.3443 12.1786 19.3443 13.085C19.3443 13.98 19.1809 14.8071 18.8542 15.5661C18.5383 16.3252 18.0917 16.988 17.5144 17.5544C16.9371 18.1096 16.2563 18.5401 15.4721 18.846C14.6878 19.1519 13.8273 19.3048 12.8906 19.3048ZM12.8906 16.059C13.25 16.059 13.5823 15.991 13.8872 15.855C14.2031 15.7191 14.4754 15.5265 14.7042 15.2772C14.9438 15.0166 15.129 14.7051 15.2597 14.3425C15.3904 13.9687 15.4557 13.5495 15.4557 13.085C15.4557 12.6205 15.3904 12.2069 15.2597 11.8444C15.129 11.4705 14.9438 11.159 14.7042 10.9097C14.4754 10.6491 14.2031 10.4509 13.8872 10.3149C13.5823 10.179 13.25 10.111 12.8906 10.111C12.5312 10.111 12.1935 10.179 11.8776 10.3149C11.5726 10.4509 11.3003 10.6491 11.0607 10.9097C10.8319 11.159 10.6522 11.4705 10.5215 11.8444C10.3908 12.2069 10.3255 12.6205 10.3255 13.085C10.3255 13.5495 10.3908 13.9687 10.5215 14.3425C10.6522 14.7051 10.8319 15.0166 11.0607 15.2772C11.3003 15.5265 11.5726 15.7191 11.8776 15.855C12.1935 15.991 12.5312 16.059 12.8906 16.059Z" fill="#EBE3E1"/>
</svg>
