<svg width="300" height="104" viewBox="0 0 300 104" fill="none" xmlns="http://www.w3.org/2000/svg">
<path d="M246.494 77.3363V40.0968H261.13V51.3299L258.747 48.1301C259.882 45.2254 261.697 43.0469 264.194 41.5945C266.69 40.1421 269.685 39.416 273.18 39.416V53.0319C272.499 52.9411 271.886 52.873 271.342 52.8276C270.842 52.7823 270.32 52.7596 269.776 52.7596C267.461 52.7596 265.555 53.3723 264.057 54.5977C262.605 55.7778 261.879 57.8428 261.879 60.793V77.3363H246.494Z" fill="#1E3E2F"/>
<path d="M222.977 77.3363C218.439 77.3363 214.467 76.4967 211.064 74.8174C207.705 73.1381 205.096 70.8461 203.235 67.9413C201.374 64.9912 200.444 61.678 200.444 58.0017C200.444 54.2346 201.351 50.8987 203.167 47.994C205.027 45.0893 207.546 42.8199 210.723 41.186C213.945 39.5521 217.554 38.7352 221.547 38.7352C225.223 38.7352 228.605 39.4614 231.691 40.9137C234.822 42.3661 237.319 44.5219 239.179 47.3813C241.085 50.2406 242.039 53.7808 242.039 58.0017C242.039 58.5463 242.016 59.1591 241.97 59.8399C241.925 60.4753 241.88 61.0653 241.834 61.6099H213.174V54.1892H233.665L227.878 56.1636C227.878 54.7112 227.606 53.4858 227.062 52.4873C226.562 51.4434 225.859 50.6491 224.951 50.1045C224.043 49.5144 222.954 49.2194 221.683 49.2194C220.413 49.2194 219.301 49.5144 218.348 50.1045C217.44 50.6491 216.737 51.4434 216.237 52.4873C215.738 53.4858 215.489 54.7112 215.489 56.1636V58.4783C215.489 60.0668 215.806 61.4284 216.442 62.563C217.077 63.6977 217.985 64.56 219.165 65.1501C220.345 65.6947 221.774 65.967 223.453 65.967C225.178 65.967 226.585 65.7401 227.674 65.2862C228.809 64.8324 229.989 64.1516 231.214 63.2438L239.247 71.3453C237.432 73.2969 235.185 74.7947 232.508 75.8386C229.875 76.8371 226.698 77.3363 222.977 77.3363Z" fill="#1E3E2F"/>
<path d="M185.837 38.7354C181.843 38.7354 178.235 39.5517 175.013 41.1856C171.836 42.8195 169.317 45.0886 167.456 47.9933C165.641 50.898 164.733 54.2349 164.733 58.0019C164.733 61.6782 165.663 64.9912 167.524 67.9413C169.385 70.846 171.994 73.1375 175.352 74.8168C178.756 76.4961 182.728 77.3363 187.266 77.3363C190.988 77.3363 194.164 76.8361 196.797 75.8376C198.6 75.1346 200.203 74.221 201.615 73.1063C198.646 70.4806 196.47 67.1344 195.423 63.2999C194.226 64.1777 193.074 64.8423 191.964 65.2861C190.875 65.7399 189.467 65.9662 187.743 65.9662C186.063 65.9662 184.635 65.695 183.455 65.1503C182.274 64.5603 181.366 63.6977 180.73 62.563C180.561 62.2617 180.416 61.9434 180.292 61.6101H195.043C194.835 60.4546 194.722 59.2631 194.722 58.0366C194.722 52.6319 196.787 47.61 200.402 43.8062C199.103 42.6479 197.632 41.6792 195.979 40.9128C192.893 39.4604 189.513 38.7354 185.837 38.7354ZM185.972 49.2191C187.243 49.2191 188.332 49.5142 189.24 50.1042C190.147 50.6488 190.851 51.4426 191.351 52.4865C191.628 52.995 191.835 53.5627 191.971 54.1888H179.959C180.083 53.5629 180.272 52.9948 180.527 52.4865C181.026 51.4426 181.73 50.6488 182.637 50.1042C183.59 49.5142 184.702 49.2191 185.972 49.2191Z" fill="#1E3E2F"/>
<path d="M135.244 77.3363L120.267 40.0967H136.061L147.43 70.3241H139.465L151.583 40.0967H166.151L151.174 77.3363H135.244Z" fill="#1E3E2F"/>
<path d="M113.028 36.3183C110.496 36.3183 108.474 35.6443 106.963 34.2963C105.451 32.9484 104.696 31.2736 104.696 29.2721C104.696 27.2705 105.451 25.5958 106.963 24.2478C108.474 22.8998 110.496 22.2258 113.028 22.2258C115.561 22.2258 117.583 22.859 119.094 24.1253C120.605 25.3915 121.361 27.0254 121.361 29.027C121.361 31.1511 120.605 32.9075 119.094 34.2963C117.583 35.6443 115.561 36.3183 113.028 36.3183Z" fill="#1E3E2F"/>
<path d="M105.336 77.3363V40.0967H120.721V77.3363H105.336Z" fill="#1E3E2F"/>
<path d="M84.5609 77.3363V26.8212H99.9463V77.3363H84.5609Z" fill="#1E3E2F"/>
<path d="M53.7106 77.3363C49.8529 77.3363 46.2675 76.7236 42.9545 75.4982C39.6868 74.2727 36.8502 72.548 34.4448 70.3241C32.0394 68.0548 30.156 65.3997 28.7944 62.3588C27.4783 59.3179 26.8202 56.0047 26.8202 52.4192C26.8202 48.7882 27.4783 45.475 28.7944 42.4795C30.156 39.4386 32.0394 36.8062 34.4448 34.5823C36.8502 32.313 39.6868 30.5656 42.9545 29.3402C46.2675 28.1147 49.8529 27.502 53.7106 27.502C57.6137 27.502 61.1991 28.1147 64.4668 29.3402C67.7345 30.5656 70.5711 32.313 72.9765 34.5823C75.3819 36.8062 77.2426 39.4386 78.5588 42.4795C79.9203 45.475 80.6011 48.7882 80.6011 52.4192C80.6011 56.0047 79.9203 59.3179 78.5588 62.3588C77.2426 65.3997 75.3819 68.0548 72.9765 70.3241C70.5711 72.548 67.7345 74.2727 64.4668 75.4982C61.1991 76.7236 57.6137 77.3363 53.7106 77.3363ZM53.7106 64.3331C55.2083 64.3331 56.5926 64.0608 57.8633 63.5161C59.1795 62.9715 60.3141 62.1999 61.2672 61.2014C62.2657 60.1576 63.0372 58.9094 63.5818 57.4571C64.1264 55.9593 64.3987 54.28 64.3987 52.4192C64.3987 50.5583 64.1264 48.9017 63.5818 47.4493C63.0372 45.9516 62.2657 44.7035 61.2672 43.705C60.3141 42.6611 59.1795 41.8668 57.8633 41.3222C56.5926 40.7775 55.2083 40.5052 53.7106 40.5052C52.2129 40.5052 50.806 40.7775 49.4899 41.3222C48.2191 41.8668 47.0845 42.6611 46.086 43.705C45.1329 44.7035 44.3841 45.9516 43.8395 47.4493C43.2948 48.9017 43.0225 50.5583 43.0225 52.4192C43.0225 54.28 43.2948 55.9593 43.8395 57.4571C44.3841 58.9094 45.1329 60.1576 46.086 61.2014C47.0845 62.1999 48.2191 62.9715 49.4899 63.5161C50.806 64.0608 52.2129 64.3331 53.7106 64.3331Z" fill="#1E3E2F"/>
</svg>
